<svg data-v-423bf9ae="" xmlns="http://www.w3.org/2000/svg" viewBox="0 0 370.5144520750312 60" class="font"><!----><!----><!----><g data-v-423bf9ae="" id="20370e00-ffac-475d-8eaa-983da0476f8a" fill="white" transform="matrix(4.823150918340797,0,0,4.823150918340797,-4.196148879360493,-22.90996590844447)"><path d="M8.43 7.25L8.43 11.56L8.43 11.56Q8.43 12.32 8.17 12.94L8.17 12.94L8.17 12.94Q7.91 13.57 7.42 14.01L7.42 14.01L7.42 14.01Q6.93 14.45 6.23 14.69L6.23 14.69L6.23 14.69Q5.53 14.92 4.65 14.92L4.65 14.92L4.65 14.92Q3.77 14.92 3.07 14.69L3.07 14.69L3.07 14.69Q2.37 14.45 1.88 14.01L1.88 14.01L1.88 14.01Q1.39 13.57 1.13 12.94L1.13 12.94L1.13 12.94Q0.87 12.32 0.87 11.56L0.87 11.56L0.87 6.22L0.87 6.22Q1.02 6.19 1.36 6.14L1.36 6.14L1.36 6.14Q1.69 6.09 2.00 6.09L2.00 6.09L2.00 6.09Q2.32 6.09 2.57 6.14L2.57 6.14L2.57 6.14Q2.81 6.19 2.98 6.31L2.98 6.31L2.98 6.31Q3.15 6.44 3.23 6.66L3.23 6.66L3.23 6.66Q3.32 6.89 3.32 7.25L3.32 7.25L3.32 11.52L3.32 11.52Q3.32 12.19 3.69 12.57L3.69 12.57L3.69 12.57Q4.06 12.95 4.65 12.95L4.65 12.95L4.65 12.95Q5.25 12.95 5.61 12.57L5.61 12.57L5.61 12.57Q5.98 12.19 5.98 11.52L5.98 11.52L5.98 6.22L5.98 6.22Q6.13 6.19 6.47 6.14L6.47 6.14L6.47 6.14Q6.80 6.09 7.11 6.09L7.11 6.09L7.11 6.09Q7.43 6.09 7.68 6.14L7.68 6.14L7.68 6.14Q7.92 6.19 8.09 6.31L8.09 6.31L8.09 6.31Q8.26 6.44 8.34 6.66L8.34 6.66L8.34 6.66Q8.43 6.89 8.43 7.25L8.43 7.25ZM13.15 7.69L13.15 7.69L13.15 7.69Q13.99 7.69 14.71 7.90L14.71 7.90L14.71 7.90Q15.43 8.12 15.95 8.57L15.95 8.57L15.95 8.57Q16.46 9.02 16.76 9.70L16.76 9.70L16.76 9.70Q17.05 10.37 17.05 11.31L17.05 11.31L17.05 11.31Q17.05 12.21 16.80 12.88L16.80 12.88L16.80 12.88Q16.55 13.55 16.09 14.01L16.09 14.01L16.09 14.01Q15.62 14.46 14.97 14.69L14.97 14.69L14.97 14.69Q14.32 14.91 13.52 14.91L13.52 14.91L13.52 14.91Q12.92 14.91 12.40 14.73L12.40 14.73L12.40 17.05L12.40 17.05Q12.26 17.09 11.96 17.14L11.96 17.14L11.96 17.14Q11.65 17.19 11.33 17.19L11.33 17.19L11.33 17.19Q11.02 17.19 10.77 17.15L10.77 17.15L10.77 17.15Q10.53 17.11 10.36 16.98L10.36 16.98L10.36 16.98Q10.19 16.86 10.11 16.64L10.11 16.64L10.11 16.64Q10.02 16.42 10.02 16.07L10.02 16.07L10.02 9.35L10.02 9.35Q10.02 8.97 10.18 8.74L10.18 8.74L10.18 8.74Q10.35 8.50 10.63 8.30L10.63 8.30L10.63 8.30Q11.06 8.02 11.70 7.85L11.70 7.85L11.70 7.85Q12.35 7.69 13.15 7.69ZM13.17 13.03L13.17 13.03L13.17 13.03Q14.62 13.03 14.62 11.31L14.62 11.31L14.62 11.31Q14.62 10.42 14.26 9.98L14.26 9.98L14.26 9.98Q13.90 9.55 13.23 9.55L13.23 9.55L13.23 9.55Q12.96 9.55 12.75 9.61L12.75 9.61L12.75 9.61Q12.54 9.67 12.39 9.76L12.39 9.76L12.39 12.84L12.39 12.84Q12.56 12.92 12.75 12.98L12.75 12.98L12.75 12.98Q12.95 13.03 13.17 13.03ZM17.92 11.30L17.92 11.30L17.92 11.30Q17.92 10.37 18.20 9.70L18.20 9.70L18.20 9.70Q18.48 9.02 18.98 8.57L18.98 8.57L18.98 8.57Q19.47 8.12 20.14 7.90L20.14 7.90L20.14 7.90Q20.80 7.69 21.57 7.69L21.57 7.69L21.57 7.69Q21.85 7.69 22.12 7.74L22.12 7.74L22.12 7.74Q22.39 7.78 22.55 7.85L22.55 7.85L22.55 5.59L22.55 5.59Q22.69 5.54 23.00 5.50L23.00 5.50L23.00 5.50Q23.31 5.45 23.63 5.45L23.63 5.45L23.63 5.45Q23.94 5.45 24.18 5.49L24.18 5.49L24.18 5.49Q24.43 5.53 24.60 5.66L24.60 5.66L24.60 5.66Q24.77 5.78 24.85 6.00L24.85 6.00L24.85 6.00Q24.93 6.22 24.93 6.57L24.93 6.57L24.93 13.20L24.93 13.20Q24.93 13.86 24.32 14.25L24.32 14.25L24.32 14.25Q23.91 14.52 23.27 14.72L23.27 14.72L23.27 14.72Q22.62 14.92 21.78 14.92L21.78 14.92L21.78 14.92Q20.87 14.92 20.15 14.67L20.15 14.67L20.15 14.67Q19.43 14.42 18.93 13.94L18.93 13.94L18.93 13.94Q18.44 13.47 18.18 12.80L18.18 12.80L18.18 12.80Q17.92 12.14 17.92 11.30ZM21.90 9.55L21.90 9.55L21.90 9.55Q21.14 9.55 20.73 9.98L20.73 9.98L20.73 9.98Q20.33 10.42 20.33 11.30L20.33 11.30L20.33 11.30Q20.33 12.17 20.71 12.61L20.71 12.61L20.71 12.61Q21.08 13.05 21.80 13.05L21.80 13.05L21.80 13.05Q22.05 13.05 22.25 12.97L22.25 12.97L22.25 12.97Q22.46 12.89 22.57 12.80L22.57 12.80L22.57 9.72L22.57 9.72Q22.29 9.55 21.90 9.55ZM29.33 13.19L29.33 13.19L29.33 13.19Q29.57 13.19 29.85 13.14L29.85 13.14L29.85 13.14Q30.14 13.09 30.28 13.01L30.28 13.01L30.28 11.89L29.27 11.97L29.27 11.97Q28.88 12.00 28.63 12.14L28.63 12.14L28.63 12.14Q28.38 12.28 28.38 12.56L28.38 12.56L28.38 12.56Q28.38 12.84 28.59 13.01L28.59 13.01L28.59 13.01Q28.81 13.19 29.33 13.19ZM29.22 7.69L29.22 7.69L29.22 7.69Q29.97 7.69 30.60 7.84L30.60 7.84L30.60 7.84Q31.22 7.99 31.66 8.31L31.66 8.31L31.66 8.31Q32.10 8.62 32.34 9.11L32.34 9.11L32.34 9.11Q32.58 9.59 32.58 10.25L32.58 10.25L32.58 13.38L32.58 13.38Q32.58 13.75 32.38 13.98L32.38 13.98L32.38 13.98Q32.17 14.21 31.89 14.38L31.89 14.38L31.89 14.38Q30.98 14.92 29.33 14.92L29.33 14.92L29.33 14.92Q28.59 14.92 27.99 14.78L27.99 14.78L27.99 14.78Q27.40 14.64 26.97 14.36L26.97 14.36L26.97 14.36Q26.54 14.08 26.31 13.65L26.31 13.65L26.31 13.65Q26.08 13.22 26.08 12.64L26.08 12.64L26.08 12.64Q26.08 11.68 26.66 11.16L26.66 11.16L26.66 11.16Q27.23 10.64 28.43 10.51L28.43 10.51L30.27 10.32L30.27 10.22L30.27 10.22Q30.27 9.81 29.91 9.64L29.91 9.64L29.91 9.64Q29.55 9.46 28.88 9.46L28.88 9.46L28.88 9.46Q28.35 9.46 27.85 9.58L27.85 9.58L27.85 9.58Q27.34 9.69 26.94 9.86L26.94 9.86L26.94 9.86Q26.75 9.73 26.63 9.47L26.63 9.47L26.63 9.47Q26.50 9.21 26.50 8.93L26.50 8.93L26.50 8.93Q26.50 8.57 26.68 8.35L26.68 8.35L26.68 8.35Q26.85 8.13 27.22 7.98L27.22 7.98L27.22 7.98Q27.62 7.83 28.17 7.76L28.17 7.76L28.17 7.76Q28.73 7.69 29.22 7.69ZM36.41 10.25L36.41 12.36L36.41 12.36Q36.41 12.73 36.64 12.88L36.64 12.88L36.64 12.88Q36.88 13.03 37.30 13.03L37.30 13.03L37.30 13.03Q37.51 13.03 37.73 13.00L37.73 13.00L37.73 13.00Q37.95 12.96 38.12 12.91L38.12 12.91L38.12 12.91Q38.25 13.06 38.34 13.25L38.34 13.25L38.34 13.25Q38.43 13.44 38.43 13.71L38.43 13.71L38.43 13.71Q38.43 14.24 38.03 14.57L38.03 14.57L38.03 14.57Q37.63 14.91 36.62 14.91L36.62 14.91L36.62 14.91Q35.39 14.91 34.73 14.35L34.73 14.35L34.73 14.35Q34.06 13.79 34.06 12.53L34.06 12.53L34.06 6.54L34.06 6.54Q34.22 6.50 34.50 6.45L34.50 6.45L34.50 6.45Q34.79 6.40 35.11 6.40L35.11 6.40L35.11 6.40Q35.73 6.40 36.07 6.62L36.07 6.62L36.07 6.62Q36.41 6.83 36.41 7.53L36.41 7.53L36.41 8.43L38.25 8.43L38.25 8.43Q38.33 8.58 38.41 8.81L38.41 8.81L38.41 8.81Q38.49 9.04 38.49 9.32L38.49 9.32L38.49 9.32Q38.49 9.81 38.27 10.03L38.27 10.03L38.27 10.03Q38.05 10.25 37.69 10.25L37.69 10.25L36.41 10.25ZM43.23 14.92L43.23 14.92L43.23 14.92Q42.41 14.92 41.70 14.69L41.70 14.69L41.70 14.69Q40.99 14.46 40.47 14.00L40.47 14.00L40.47 14.00Q39.94 13.54 39.64 12.84L39.64 12.84L39.64 12.84Q39.34 12.14 39.34 11.20L39.34 11.20L39.34 11.20Q39.34 10.28 39.64 9.61L39.64 9.61L39.64 9.61Q39.94 8.95 40.43 8.52L40.43 8.52L40.43 8.52Q40.92 8.09 41.55 7.89L41.55 7.89L41.55 7.89Q42.18 7.69 42.84 7.69L42.84 7.69L42.84 7.69Q43.58 7.69 44.19 7.91L44.19 7.91L44.19 7.91Q44.80 8.13 45.24 8.53L45.24 8.53L45.24 8.53Q45.68 8.92 45.93 9.46L45.93 9.46L45.93 9.46Q46.17 10.01 46.17 10.65L46.17 10.65L46.17 10.65Q46.17 11.13 45.91 11.38L45.91 11.38L45.91 11.38Q45.64 11.63 45.16 11.70L45.16 11.70L41.71 12.22L41.71 12.22Q41.86 12.68 42.34 12.92L42.34 12.92L42.34 12.92Q42.81 13.15 43.43 13.15L43.43 13.15L43.43 13.15Q44.00 13.15 44.51 13.00L44.51 13.00L44.51 13.00Q45.02 12.85 45.35 12.66L45.35 12.66L45.35 12.66Q45.57 12.80 45.72 13.05L45.72 13.05L45.72 13.05Q45.88 13.30 45.88 13.58L45.88 13.58L45.88 13.58Q45.88 14.21 45.29 14.52L45.29 14.52L45.29 14.52Q44.84 14.76 44.28 14.84L44.28 14.84L44.28 14.84Q43.72 14.92 43.23 14.92ZM42.84 9.42L42.84 9.42L42.84 9.42Q42.50 9.42 42.26 9.53L42.26 9.53L42.26 9.53Q42.01 9.65 41.86 9.82L41.86 9.82L41.86 9.82Q41.71 10.00 41.63 10.21L41.63 10.21L41.63 10.21Q41.55 10.43 41.54 10.65L41.54 10.65L43.93 10.26L43.93 10.26Q43.89 9.98 43.62 9.70L43.62 9.70L43.62 9.70Q43.36 9.42 42.84 9.42ZM51.83 7.92L51.83 7.92L51.83 7.92Q50.75 7.92 50.18 8.58L50.18 8.58L50.18 8.58Q49.60 9.24 49.60 10.44L49.60 10.44L49.60 10.44Q49.60 11.66 50.24 12.32L50.24 12.32L50.24 12.32Q50.88 12.98 51.95 12.98L51.95 12.98L51.95 12.98Q52.53 12.98 52.93 12.82L52.93 12.82L52.93 12.82Q53.33 12.67 53.69 12.47L53.69 12.47L53.69 12.47Q53.93 12.67 54.06 12.94L54.06 12.94L54.06 12.94Q54.19 13.22 54.19 13.58L54.19 13.58L54.19 13.58Q54.19 14.15 53.56 14.55L53.56 14.55L53.56 14.55Q52.92 14.95 51.62 14.95L51.62 14.95L51.62 14.95Q50.68 14.95 49.85 14.69L49.85 14.69L49.85 14.69Q49.03 14.42 48.41 13.87L48.41 13.87L48.41 13.87Q47.80 13.31 47.44 12.47L47.44 12.47L47.44 12.47Q47.08 11.62 47.08 10.44L47.08 10.44L47.08 10.44Q47.08 9.35 47.42 8.52L47.42 8.52L47.42 8.52Q47.77 7.69 48.36 7.11L48.36 7.11L48.36 7.11Q48.96 6.54 49.76 6.24L49.76 6.24L49.76 6.24Q50.55 5.95 51.46 5.95L51.46 5.95L51.46 5.95Q52.75 5.95 53.46 6.37L53.46 6.37L53.46 6.37Q54.17 6.79 54.17 7.45L54.17 7.45L54.17 7.45Q54.17 7.81 53.98 8.08L53.98 8.08L53.98 8.08Q53.80 8.34 53.56 8.50L53.56 8.50L53.56 8.50Q53.20 8.26 52.79 8.09L52.79 8.09L52.79 8.09Q52.37 7.92 51.83 7.92ZM60.58 14.42L60.58 14.42L60.58 14.42Q60.38 14.59 59.97 14.71L59.97 14.71L59.97 14.71Q59.56 14.84 59.07 14.84L59.07 14.84L59.07 14.84Q58.48 14.84 58.06 14.67L58.06 14.67L58.06 14.67Q57.64 14.49 57.48 14.18L57.48 14.18L57.48 14.18Q57.33 13.86 57.11 13.35L57.11 13.35L57.11 13.35Q56.88 12.84 56.64 12.21L56.64 12.21L56.64 12.21Q56.39 11.58 56.13 10.87L56.13 10.87L56.13 10.87Q55.87 10.16 55.64 9.44L55.64 9.44L55.64 9.44Q55.40 8.71 55.19 8.01L55.19 8.01L55.19 8.01Q54.98 7.31 54.82 6.69L54.82 6.69L54.82 6.69Q55.02 6.50 55.39 6.34L55.39 6.34L55.39 6.34Q55.76 6.17 56.18 6.17L56.18 6.17L56.18 6.17Q56.70 6.17 57.03 6.39L57.03 6.39L57.03 6.39Q57.36 6.61 57.51 7.20L57.51 7.20L57.51 7.20Q57.89 8.57 58.27 9.82L58.27 9.82L58.27 9.82Q58.66 11.07 59.08 12.43L59.08 12.43L59.16 12.43L59.16 12.43Q59.54 11.12 59.94 9.56L59.94 9.56L59.94 9.56Q60.34 8.01 60.70 6.47L60.70 6.47L60.70 6.47Q60.96 6.34 61.24 6.26L61.24 6.26L61.24 6.26Q61.53 6.17 61.89 6.17L61.89 6.17L61.89 6.17Q62.41 6.17 62.78 6.41L62.78 6.41L62.78 6.41Q63.14 6.64 63.14 7.17L63.14 7.17L63.14 7.17Q63.14 7.48 62.99 8.06L62.99 8.06L62.99 8.06Q62.85 8.65 62.61 9.39L62.61 9.39L62.61 9.39Q62.38 10.12 62.10 10.92L62.10 10.92L62.10 10.92Q61.81 11.72 61.52 12.43L61.52 12.43L61.52 12.43Q61.24 13.13 60.98 13.67L60.98 13.67L60.98 13.67Q60.73 14.21 60.58 14.42ZM63.77 13.57L63.77 13.57L63.77 13.57Q63.77 12.98 64.13 12.59L64.13 12.59L64.13 12.59Q64.50 12.19 65.13 12.19L65.13 12.19L65.13 12.19Q65.76 12.19 66.12 12.59L66.12 12.59L66.12 12.59Q66.49 12.98 66.49 13.57L66.49 13.57L66.49 13.57Q66.49 14.15 66.12 14.55L66.12 14.55L66.12 14.55Q65.76 14.94 65.13 14.94L65.13 14.94L65.13 14.94Q64.50 14.94 64.13 14.55L64.13 14.55L64.13 14.55Q63.77 14.15 63.77 13.57ZM70.43 13.19L70.43 13.19L70.43 13.19Q70.67 13.19 70.96 13.14L70.96 13.14L70.96 13.14Q71.25 13.09 71.39 13.01L71.39 13.01L71.39 11.89L70.38 11.97L70.38 11.97Q69.99 12.00 69.73 12.14L69.73 12.14L69.73 12.14Q69.48 12.28 69.48 12.56L69.48 12.56L69.48 12.56Q69.48 12.84 69.70 13.01L69.70 13.01L69.70 13.01Q69.92 13.19 70.43 13.19ZM70.32 7.69L70.32 7.69L70.32 7.69Q71.08 7.69 71.70 7.84L71.70 7.84L71.70 7.84Q72.32 7.99 72.77 8.31L72.77 8.31L72.77 8.31Q73.21 8.62 73.44 9.11L73.44 9.11L73.44 9.11Q73.68 9.59 73.68 10.25L73.68 10.25L73.68 13.38L73.68 13.38Q73.68 13.75 73.48 13.98L73.48 13.98L73.48 13.98Q73.28 14.21 73.00 14.38L73.00 14.38L73.00 14.38Q72.09 14.92 70.43 14.92L70.43 14.92L70.43 14.92Q69.69 14.92 69.10 14.78L69.10 14.78L69.10 14.78Q68.50 14.64 68.08 14.36L68.08 14.36L68.08 14.36Q67.65 14.08 67.42 13.65L67.42 13.65L67.42 13.65Q67.19 13.22 67.19 12.64L67.19 12.64L67.19 12.64Q67.19 11.68 67.76 11.16L67.76 11.16L67.76 11.16Q68.33 10.64 69.54 10.51L69.54 10.51L71.37 10.32L71.37 10.22L71.37 10.22Q71.37 9.81 71.02 9.64L71.02 9.64L71.02 9.64Q70.66 9.46 69.99 9.46L69.99 9.46L69.99 9.46Q69.45 9.46 68.95 9.58L68.95 9.58L68.95 9.58Q68.45 9.69 68.04 9.86L68.04 9.86L68.04 9.86Q67.86 9.73 67.73 9.47L67.73 9.47L67.73 9.47Q67.61 9.21 67.61 8.93L67.61 8.93L67.61 8.93Q67.61 8.57 67.78 8.35L67.78 8.35L67.78 8.35Q67.96 8.13 68.32 7.98L68.32 7.98L68.32 7.98Q68.73 7.83 69.28 7.76L69.28 7.76L69.28 7.76Q69.83 7.69 70.32 7.69ZM75.08 6.01L75.08 6.01L75.08 6.01Q75.08 5.47 75.44 5.11L75.44 5.11L75.44 5.11Q75.80 4.75 76.38 4.75L76.38 4.75L76.38 4.75Q76.97 4.75 77.33 5.11L77.33 5.11L77.33 5.11Q77.69 5.47 77.69 6.01L77.69 6.01L77.69 6.01Q77.69 6.54 77.33 6.90L77.33 6.90L77.33 6.90Q76.97 7.27 76.38 7.27L76.38 7.27L76.38 7.27Q75.80 7.27 75.44 6.90L75.44 6.90L75.44 6.90Q75.08 6.54 75.08 6.01ZM77.57 8.99L77.57 14.69L77.57 14.69Q77.42 14.71 77.12 14.76L77.12 14.76L77.12 14.76Q76.82 14.81 76.51 14.81L76.51 14.81L76.51 14.81Q76.20 14.81 75.96 14.77L75.96 14.77L75.96 14.77Q75.71 14.73 75.54 14.60L75.54 14.60L75.54 14.60Q75.38 14.48 75.28 14.26L75.28 14.26L75.28 14.26Q75.19 14.04 75.19 13.69L75.19 13.69L75.19 7.99L75.19 7.99Q75.35 7.97 75.65 7.92L75.65 7.92L75.65 7.92Q75.95 7.87 76.26 7.87L76.26 7.87L76.26 7.87Q76.57 7.87 76.81 7.91L76.81 7.91L76.81 7.91Q77.06 7.95 77.22 8.08L77.22 8.08L77.22 8.08Q77.39 8.20 77.48 8.42L77.48 8.42L77.48 8.42Q77.57 8.64 77.57 8.99L77.57 8.99Z"></path></g><!----><!----></svg>